<?xml version="1.0" encoding="UTF-8"?>
<svg width="1200px" height="600px" viewBox="0 0 1200 600" version="1.1" xmlns="http://www.w3.org/2000/svg" xmlns:xlink="http://www.w3.org/1999/xlink">
    <!-- Generator: Sketch 54.1 (76490) - https://sketchapp.com -->
    <title>bg</title>
    <desc>Created with Sketch.</desc>
    <g id="Page-1" stroke="none" stroke-width="1" fill="none" fill-rule="evenodd">
        <g id="bg" fill-rule="nonzero">
            <rect id="Rectangle" fill="#AFE4DB" x="1.75438596" y="0" width="1197.36842" height="600"></rect>
            <path d="M2.19298246,147.578125 C260.087719,164.453125 455.087719,91.015625 700.877193,91.40625 C855.438596,91.640625 1045.78947,139.84375 1200,147.578125 L1200,599.609375 L1.31578947,599.609375 L2.19298246,147.578125 Z" id="Path" fill="#68EAED"></path>
            <path d="M852.192982,135.15625 C759.924768,158.461172 655.438596,155.3125 559.122807,147.03125 C460.789474,138.59375 389.385965,116.09375 291.754386,104.375 C194.122807,92.65625 105.350877,74.21875 1.75438596,100.390625 C1.75438596,124.122609 1.75438596,141.921597 1.75438596,153.787589 C1.75438596,252.859097 1.75438596,401.466359 1.75438596,599.609375 L1199.5614,599.609375 C1199.5614,399.004465 1199.5614,248.550782 1199.5614,148.248327 C1199.5614,137.613282 1199.5614,121.660715 1199.5614,100.390625 C1199.5614,100.390625 1035.61404,88.828125 852.192982,135.15625 Z" id="Path" fill="#45E8F2" opacity="0.38"></path>
            <path d="M1.75438596,409.375 C65.7894737,375.78125 183.333333,345.3125 229.824561,353.125 C276.315789,360.9375 340.350877,456.25 397.368421,457.03125 C454.385965,457.8125 485.964912,400 550.877193,404.6875 C615.789474,409.375 729.736842,551.484375 786.842105,542.96875 C839.473684,535.15625 947.807018,453.90625 1013.59649,457.03125 C1079.38596,460.15625 1117.7838,432.093936 1199.12281,409.37 L1199.12281,599.21875 L0,599.21875 L1.75438596,409.375 Z" id="Path" fill="#41CCD5" opacity="0.37"></path>
            <g id="Group" transform="translate(885.087719, 447.656250)">
                <path d="M113.508772,48.59375 C85.1754386,50.46875 85.0877193,53.671875 101.491228,65.78125 C83.5964912,59.53125 82.1929825,62.34375 87.6315789,73.125 C78.3333333,67.1875 75.877193,69.375 76.2280702,75.625 C70.0877193,72.65625 66.8421053,73.828125 64.3859649,79.765625 C59.7368421,75 56.2280702,74.921875 52.3684211,83.359375 C49.5614035,73.515625 46.4035088,72.265625 37.4561404,87.109375 C40.877193,68.90625 38.5087719,66.71875 18.8596491,83.203125 C34.8245614,61.640625 33.5087719,58.671875 4.38596491,64.84375 C32.1929825,52.34375 32.3684211,49.21875 8.07017544,44.0625 C33.8596491,43.359375 35.2631579,40.546875 17.8947368,27.578125 C39.122807,35.703125 41.5789474,33.59375 27.0175439,14.53125 C47.2807018,30.234375 50.5263158,29.0625 46.4912281,1.484375 C57.7192982,27.96875 61.2280702,28.046875 73.1578947,6.25 C67.8947368,29.375 70.9649123,30.625 86.2280702,14.84375 C76.4912281,34.0625 78.8596491,36.25 106.842105,24.6875 C82.5438596,41.25 83.9473684,44.140625 113.508772,48.59375" id="Path" fill="#342D63"></path>
                <path d="M111.315789,57.5 C83.0701754,54.921875 82.3684211,57.96875 96.0526316,72.5 C79.6491228,63.59375 77.7192982,66.09375 80.9649123,77.578125 C72.9824561,70.3125 70.1754386,72.03125 69.2982456,78.203125 C63.8596491,74.296875 60.4385965,75 56.8421053,80.390625 C53.1578947,75 49.7368421,74.296875 44.2982456,82.03125 C43.4210526,71.875 40.6140351,70.15625 28.8596491,83.359375 C35.877193,65.9375 33.9473684,63.4375 11.3157895,76.5625 C31.2280702,57.8125 30.5263158,54.765625 0.701754386,56.171875 C30.6140351,48.28125 31.3157895,45.15625 8.42105263,36.25 C33.9473684,39.609375 35.877193,37.03125 21.4035088,21.5625 C40.7017544,32.890625 43.5087719,31.171875 32.9824561,10.15625 C49.8245614,28.828125 53.245614,28.125 54.7368421,0.390625 C60.5263158,28.203125 63.9473684,28.828125 80,9.296875 C70.2631579,31.25 73.0701754,32.96875 91.2280702,19.84375 C77.8070175,37.1875 79.7368421,39.765625 109.561404,32.8125 C82.2807018,45.390625 83.0701754,48.515625 111.315789,57.5" id="Path" fill="#454088"></path>
                <path d="M93.3333333,63.046875 C75.0877193,61.40625 74.5614035,63.359375 83.5087719,72.734375 C72.8947368,66.953125 71.6666667,68.59375 73.7719298,76.015625 C68.5964912,71.328125 66.754386,72.421875 66.2280702,76.40625 C62.7192982,73.90625 60.5263158,74.296875 58.1578947,77.8125 C55.7894737,74.296875 53.5964912,73.90625 50.0877193,78.90625 C49.5614035,72.34375 47.7192982,71.25 40.0877193,79.765625 C44.6491228,68.515625 43.4210526,66.875 28.7719298,75.390625 C41.6666667,63.28125 41.2280702,61.25 21.9298246,62.265625 C41.2280702,57.109375 41.754386,55.15625 26.9298246,49.375 C43.4210526,51.5625 44.6491228,49.921875 35.2631579,39.84375 C47.7192982,47.1875 49.5614035,46.015625 42.7192982,32.5 C53.5964912,44.53125 55.7894737,44.140625 56.754386,26.171875 C60.5263158,44.140625 62.7192982,44.53125 73.0701754,31.875 C66.754386,46.09375 68.5964912,47.1875 80.2631579,38.671875 C71.5789474,49.921875 72.8070175,51.5625 92.1052632,47.03125 C74.6491228,55.234375 75.0877193,57.1875 93.3333333,63.046875" id="Path" fill="#5D5996"></path>
            </g>
            <g id="Group" transform="translate(335.964912, 503.125000)">
                <path d="M84.5614035,52.421875 C63.5964912,46.09375 62.3684211,48.28125 70,61.484375 C59.2982456,52.109375 57.2807018,53.75 57.5438596,62.96875 C52.8947368,56.171875 50.4385965,57.03125 48.5087719,61.640625 C45.1754386,57.8125 42.3684211,57.8125 38.5964912,61.328125 C36.9298246,56.640625 34.3859649,55.546875 28.7719298,60.625 C30.0877193,52.8125 28.3333333,51.015625 16.754386,59.21875 C25.5263158,47.03125 24.5614035,44.84375 4.73684211,51.328125 C23.5964912,40.15625 23.6842105,37.734375 0.614035088,34.140625 C24.9122807,32.8125 26.0526316,30.546875 10.4385965,20.15625 C29.2105263,26.640625 31.2280702,25.078125 23.1578947,11.015625 C35.6140351,22.65625 38.0701754,21.796875 34.2105263,4.140625 C43.3333333,20.9375 46.1403509,21.015625 52.7192982,0.078125 C51.6666667,22.109375 54.122807,23.203125 70.2631579,10.78125 C58.5087719,25.9375 60.3508772,27.734375 76.6666667,20.546875 C63.0701754,31.640625 64.0350877,33.90625 88.0701754,33.28125 C64.8245614,38.671875 64.8245614,41.171875 84.5614035,52.421875" id="Path" fill="#342D63"></path>
                <path d="M79.9122807,58.203125 C60.5263158,48.671875 58.9473684,50.625 63.7719298,64.84375 C55.0877193,53.90625 52.8070175,55.234375 51.1403509,64.375 C47.8947368,56.953125 45.2631579,57.421875 42.5438596,61.640625 C40,57.34375 37.2807018,56.875 32.8070175,59.765625 C32.0175439,54.84375 29.8245614,53.4375 23.245614,57.5 C26.1403509,50 24.6491228,47.96875 11.754386,54.21875 C22.8070175,43.59375 22.2807018,41.328125 1.49122807,44.609375 C22.2807018,36.5625 22.8070175,34.140625 0.877192982,27.109375 C25.0877193,29.609375 26.6666667,27.578125 13.245614,14.921875 C30.4385965,24.296875 32.7192982,23.046875 27.6315789,7.890625 C37.6315789,21.25 40.1754386,20.859375 39.8245614,2.890625 C45.5263158,20.859375 48.1578947,21.328125 58.7719298,1.796875 C53.3333333,23.359375 55.6140351,24.765625 73.8596491,15.078125 C59.2982456,28.203125 60.7017544,30.15625 78.245614,25.703125 C62.6315789,34.53125 63.1578947,36.875 86.9298246,40 C63.245614,41.640625 62.7192982,43.984375 79.9122807,58.203125" id="Path" fill="#454088"></path>
                <path d="M65.0877193,57.265625 C52.5438596,51.09375 51.4912281,52.421875 54.6491228,61.5625 C49.0350877,54.53125 47.5438596,55.3125 46.4912281,61.25 C44.3859649,56.484375 42.7192982,56.71875 40.877193,59.453125 C39.2105263,56.71875 37.4561404,56.40625 34.5614035,58.28125 C34.0350877,55.15625 32.6315789,54.21875 28.4210526,56.875 C30.2631579,52.03125 29.3859649,50.703125 20.9649123,54.765625 C28.0701754,47.890625 27.7192982,46.40625 14.3859649,48.515625 C27.8070175,43.359375 28.1578947,41.796875 13.9473684,37.1875 C29.5614035,38.75 30.6140351,37.5 21.9298246,29.296875 C33.0701754,35.3125 34.4736842,34.53125 31.2280702,24.765625 C37.6315789,33.4375 39.3859649,33.125 39.122807,21.484375 C42.8070175,33.125 44.5614035,33.4375 51.4035088,20.78125 C47.8947368,34.6875 49.3859649,35.625 61.1403509,29.375 C51.754386,37.8125 52.6315789,39.140625 64.0350877,36.25 C53.9473684,41.953125 54.2982456,43.4375 69.6491228,45.46875 C54.2982456,46.5625 53.9473684,48.125 65.0877193,57.265625" id="Path" fill="#5D5996"></path>
            </g>
            <path d="M1199.12281,495.078125 C1130.17544,479.0625 1052.01754,483.203125 980.438596,494.6875 C908.859649,506.171875 840.964912,524.53125 769.824561,536.796875 C690.175439,550.546875 606.666667,556.484375 523.684211,554.453125 C347.719298,550.078125 174.561404,481.796875 0,495.078125 L0,599.609375 L1199.5614,599.609375 L1199.12281,495.078125 Z" id="Path" fill="#CECE95"></path>
            <path d="M1013.59649,174.609375 C1013.59649,179.765625 1008.85965,183.984375 1003.07018,183.984375 C997.280702,183.984375 992.54386,179.765625 992.54386,174.609375 C992.54386,169.453125 997.280702,165.234375 1003.07018,165.234375 C1008.85965,165.234375 1013.59649,169.453125 1013.59649,174.609375" id="Path" fill="#2699A0" opacity="0.45"></path>
            <path d="M219.736842,405.078125 C219.736842,410.234375 215,414.453125 209.210526,414.453125 C203.421053,414.453125 198.684211,410.234375 198.684211,405.078125 C198.684211,399.921875 203.421053,395.703125 209.210526,395.703125 C215,395.703125 219.736842,399.921875 219.736842,405.078125" id="Path" fill="#2699A0" opacity="0.45"></path>
            <path d="M89.0350877,241.796875 C89.0350877,246.953125 84.2982456,251.171875 78.5087719,251.171875 C72.7192982,251.171875 67.9824561,246.953125 67.9824561,241.796875 C67.9824561,236.640625 72.7192982,232.421875 78.5087719,232.421875 C84.2982456,232.421875 89.0350877,236.640625 89.0350877,241.796875" id="Path" fill="#2699A0" opacity="0.45"></path>
            <path d="M943.859649,272.65625 C943.859649,277.8125 939.122807,282.03125 933.333333,282.03125 C927.54386,282.03125 922.807018,277.8125 922.807018,272.65625 C922.807018,267.5 927.54386,263.28125 933.333333,263.28125 C939.122807,263.28125 943.859649,267.5 943.859649,272.65625" id="Path" fill="#2699A0" opacity="0.45"></path>
            <path d="M431.578947,398.4375 C431.578947,403.59375 426.842105,407.8125 421.052632,407.8125 C415.263158,407.8125 410.526316,403.59375 410.526316,398.4375 C410.526316,393.28125 415.263158,389.0625 421.052632,389.0625 C426.842105,389.0625 431.578947,393.28125 431.578947,398.4375" id="Path" fill="#2699A0" opacity="0.45"></path>
            <path d="M1043.85965,197.65625 C1043.85965,200.234375 1041.49123,202.34375 1038.59649,202.34375 C1035.70175,202.34375 1033.33333,200.234375 1033.33333,197.65625 C1033.33333,195.078125 1035.70175,192.96875 1038.59649,192.96875 C1041.49123,192.96875 1043.85965,195.078125 1043.85965,197.65625" id="Path" fill="#2699A0" opacity="0.45"></path>
            <path d="M949.122807,415.625 C949.122807,418.203125 946.754386,420.3125 943.859649,420.3125 C940.964912,420.3125 938.596491,418.203125 938.596491,415.625 C938.596491,413.046875 940.964912,410.9375 943.859649,410.9375 C946.754386,410.9375 949.122807,413.046875 949.122807,415.625" id="Path" fill="#2699A0" opacity="0.45"></path>
        </g>
    </g>
</svg>